<?xml version="1.0" encoding="utf-8"?>
<svg xmlns="http://www.w3.org/2000/svg"
	xmlns:xlink="http://www.w3.org/1999/xlink"
	width="33px" height="36px" viewBox="0 0 33 36">
<path fillRule="evenodd" d="M 30.01 22.22C 30.01 22.22 29.99 22.22 29.99 22.22 29.99 22.22 29.99 29.74 29.99 29.74 29.99 30.98 28.98 31.99 27.74 31.99 27.74 31.99 27.74 33.72 27.74 33.72 27.74 34.96 26.74 35.97 25.49 35.97 25.49 35.97 23.25 35.97 23.25 35.97 22.01 35.97 21 34.96 21 33.72 21 33.72 21 31.99 21 31.99 21 31.99 12.01 31.99 12.01 31.99 12.01 31.99 12.01 33.72 12.01 33.72 12.01 34.96 11 35.97 9.76 35.97 9.76 35.97 7.51 35.97 7.51 35.97 6.27 35.97 5.26 34.96 5.26 33.72 5.26 33.72 5.26 31.99 5.26 31.99 4.02 31.99 3.02 30.98 3.02 29.74 3.02 29.74 3.02 22.23 3.02 22.23 3.02 22.23 2.99 22.22 2.99 22.22 1.77 22.22 0.77 21.49 0.77 20.26 0.77 20.26 0.77 20.21 0.77 20.21 0.77 18.98 1.77 17.99 2.99 17.99 2.99 17.99 5.26 17.99 5.26 17.99 5.26 14.26 8.28 11.24 12.01 11.24 12.01 11.24 21 11.24 21 11.24 24.72 11.24 27.74 14.26 27.74 17.99 27.74 17.99 30.01 17.99 30.01 17.99 31.24 17.99 32.24 18.98 32.24 20.21 32.24 20.21 32.24 20.26 32.24 20.26 32.24 21.49 31.24 22.22 30.01 22.22ZM 23.25 33.72C 23.25 33.72 25.49 33.72 25.49 33.72 25.49 33.72 25.49 31.99 25.49 31.99 25.49 31.99 23.25 31.99 23.25 31.99 23.25 31.99 23.25 33.72 23.25 33.72ZM 7.51 33.72C 7.51 33.72 9.76 33.72 9.76 33.72 9.76 33.72 9.76 31.99 9.76 31.99 9.76 31.99 7.51 31.99 7.51 31.99 7.51 31.99 7.51 33.72 7.51 33.72ZM 20.53 13.99C 20.53 13.99 12.48 13.99 12.48 13.99 9.99 13.99 7.98 16 7.98 18.49 7.98 18.49 7.98 19.98 7.98 19.98 7.98 19.98 25.02 19.98 25.02 19.98 25.02 19.98 25.03 18.49 25.03 18.49 25.03 16 23.01 13.99 20.53 13.99ZM 27.01 23C 27.01 23 6 23 6 23 6 23 6 29.01 6 29.01 6 29.01 27.01 29.01 27.01 29.01 27.01 29.01 27.01 23 27.01 23ZM 8.62 24.73C 8.62 24.73 10.89 24.73 10.89 24.73 11.51 24.73 12.01 25.23 12.01 25.84 12.01 25.84 12.01 25.86 12.01 25.86 12.01 26.48 11.51 26.98 10.89 26.98 10.89 26.98 8.62 26.98 8.62 26.98 8.01 26.98 7.51 26.48 7.51 25.86 7.51 25.86 7.51 25.84 7.51 25.84 7.51 25.23 8.01 24.73 8.62 24.73ZM 22.11 24.73C 22.11 24.73 24.38 24.73 24.38 24.73 25 24.73 25.49 25.23 25.49 25.84 25.49 25.84 25.49 25.86 25.49 25.86 25.49 26.48 25 26.98 24.38 26.98 24.38 26.98 22.11 26.98 22.11 26.98 21.5 26.98 21 26.48 21 25.86 21 25.86 21 25.84 21 25.84 21 25.23 21.5 24.73 22.11 24.73ZM 28.99 5.28C 28.99 4.04 27.98 3.03 26.74 3.03 26.74 3.03 6.26 3.03 6.26 3.03 5.02 3.03 4.02 4.04 4.02 5.28 4.02 5.28 4.02 15.74 4.02 15.74 4.02 15.74 0.96 15.74 0.96 15.74 0.96 15.74 0.96 4.5 0.96 4.5 0.96 2.02 2.97 0 5.45 0 5.45 0 27.52 0 27.52 0 30.01 0 32.02 2.02 32.02 4.5 32.02 4.5 32.02 15.74 32.02 15.74 32.02 15.74 28.99 15.74 28.99 15.74 28.99 15.74 28.99 5.28 28.99 5.28Z" fill="#B8D887"/></svg>
