<?xml version="1.0" encoding="utf-8"?>
<svg xmlns="http://www.w3.org/2000/svg"
	xmlns:xlink="http://www.w3.org/1999/xlink"
	width="31px" height="34px" viewBox="0 0 31 34">
<path fillRule="evenodd" d="M 28.56 34C 28.56 34 7.44 34 7.44 34 6.09 34 5 32.91 5 31.56 5 31.56 5 7.44 5 7.44 5 6.09 6.09 5 7.44 5 7.44 5 23.92 5 23.92 5 23.92 5 31 12.08 31 12.08 31 12.08 31 31.56 31 31.56 31 32.91 29.91 34 28.56 34ZM 22 7.83C 22 7.83 22 13 22 13 22 13 27.17 13 27.17 13 27.17 13 22 7.83 22 7.83ZM 28 16C 28 16 21 16 21 16 21 16 20.98 16 20.98 16 19.89 16 19 15.11 19 14.02 19 14.02 19 14 19 14 19 14 19 8 19 8 19 8 8.44 8 8.44 8 8.2 8 8 8.2 8 8.44 8 8.44 8 30.56 8 30.56 8 30.8 8.2 31 8.44 31 8.44 31 27.56 31 27.56 31 27.8 31 28 30.8 28 30.56 28 30.56 28 16 28 16ZM 3 3.44C 3 3.44 3 25 3 25 3 25 3 26.56 3 26.56 3 26.56 3 28.96 3 28.96 1.86 28.75-0 27-0 25.07-0 25.07-0 2.44-0 2.44-0 1.09 1.09-0 2.44-0 2.44-0 16-0 16-0 16-0 19 3 19 3 19 3 3.44 3 3.44 3 3.2 3 3 3.2 3 3.44Z" fill="#B8D887"/></svg>
