<?xml version="1.0" encoding="utf-8"?>
<svg xmlns="http://www.w3.org/2000/svg"
	xmlns:xlink="http://www.w3.org/1999/xlink"
	width="35px" height="33px" viewBox="0 0 35 33">
<path fillRule="evenodd" d="M 34 8.5C 34 9.33 33.32 10 32.5 10 31.67 10 31 9.33 31 8.5 31 8.5 31 5.15 31 5.15 31 5.15 22.8 13.34 22.8 13.34 22.21 13.93 21.26 13.93 20.68 13.34 20.09 12.76 20.09 11.81 20.68 11.22 20.68 11.22 28.87 3.03 28.87 3.03 28.87 3.03 25.56 3.03 25.56 3.03 24.73 3.03 24.06 2.36 24.06 1.53 24.06 0.7 24.73 0.03 25.56 0.03 25.56 0.03 32.34 0.03 32.34 0.03 32.39 0.03 32.44-0 32.5-0 32.66-0 32.81 0.04 32.96 0.09 33.05 0.12 33.13 0.15 33.21 0.2 33.33 0.26 33.45 0.33 33.55 0.42 33.56 0.43 33.57 0.43 33.58 0.44 33.59 0.45 33.59 0.47 33.6 0.48 33.88 0.75 34.06 1.12 34.06 1.53 34.06 1.64 34.02 1.73 34 1.83 34 1.83 34 8.5 34 8.5ZM 6.13 29.97C 6.13 29.97 9.44 29.97 9.44 29.97 10.27 29.97 10.94 30.64 10.94 31.47 10.94 32.29 10.27 32.97 9.44 32.97 9.44 32.97 2.65 32.97 2.65 32.97 2.6 32.97 2.55 33 2.5 33 2.33 33 2.18 32.96 2.03 32.91 1.95 32.88 1.87 32.84 1.79 32.8 1.66 32.74 1.55 32.66 1.45 32.57 1.44 32.57 1.43 32.56 1.42 32.55 1.41 32.54 1.4 32.53 1.39 32.51 1.12 32.24 0.94 31.88 0.94 31.47 0.94 31.36 0.98 31.27 1 31.17 1 31.17 1 24.5 1 24.5 1 23.67 1.67 23 2.5 23 3.33 23 4 23.67 4 24.5 4 24.5 4 27.85 4 27.85 4 27.85 12.2 19.65 12.2 19.65 12.78 19.07 13.73 19.07 14.32 19.65 14.9 20.24 14.9 21.19 14.32 21.78 14.32 21.78 6.13 29.97 6.13 29.97ZM 12.2 13.34C 12.2 13.34 4 5.15 4 5.15 4 5.15 4 8.5 4 8.5 4 9.33 3.33 10 2.5 10 1.67 10 1 9.33 1 8.5 1 8.5 1 1.83 1 1.83 0.98 1.73 0.94 1.64 0.94 1.53 0.94 1.12 1.12 0.75 1.39 0.48 1.4 0.47 1.41 0.45 1.42 0.44 1.43 0.43 1.44 0.43 1.45 0.42 1.55 0.33 1.66 0.26 1.79 0.2 1.87 0.15 1.95 0.12 2.03 0.09 2.18 0.04 2.33-0 2.5-0 2.55-0 2.6 0.03 2.65 0.03 2.65 0.03 9.44 0.03 9.44 0.03 10.27 0.03 10.94 0.7 10.94 1.53 10.94 2.36 10.27 3.03 9.44 3.03 9.44 3.03 6.13 3.03 6.13 3.03 6.13 3.03 14.32 11.22 14.32 11.22 14.9 11.81 14.9 12.76 14.32 13.34 13.73 13.93 12.78 13.93 12.2 13.34ZM 22.8 19.65C 22.8 19.65 31 27.85 31 27.85 31 27.85 31 24.5 31 24.5 31 23.67 31.67 23 32.5 23 33.32 23 34 23.67 34 24.5 34 24.5 34 31.17 34 31.17 34.02 31.27 34.06 31.36 34.06 31.47 34.06 31.88 33.88 32.24 33.6 32.51 33.59 32.53 33.59 32.54 33.58 32.55 33.57 32.56 33.56 32.57 33.55 32.57 33.45 32.66 33.33 32.74 33.21 32.8 33.13 32.84 33.05 32.88 32.96 32.91 32.82 32.96 32.66 33 32.5 33 32.44 33 32.39 32.97 32.34 32.97 32.34 32.97 25.56 32.97 25.56 32.97 24.73 32.97 24.06 32.29 24.06 31.47 24.06 30.64 24.73 29.97 25.56 29.97 25.56 29.97 28.87 29.97 28.87 29.97 28.87 29.97 20.68 21.78 20.68 21.78 20.09 21.19 20.09 20.24 20.68 19.65 21.26 19.07 22.21 19.07 22.8 19.65Z" fill="#B8D887"/></svg>
