<?xml version="1.0" encoding="utf-8"?>
<svg xmlns="http://www.w3.org/2000/svg"
	xmlns:xlink="http://www.w3.org/1999/xlink"
	width="38px" height="37px" viewBox="0 0 38 37">
<path fillRule="evenodd" d="M 35.97 19.58C 35.97 19.58 36.32 22.4 36.32 22.4 36.32 22.4 33.75 21.19 33.75 21.19 33.75 21.19 31.17 22.4 31.17 22.4 31.17 22.4 31.52 19.58 31.52 19.58 31.52 19.58 29.58 17.5 29.58 17.5 29.58 17.5 32.37 16.96 32.37 16.96 32.37 16.96 33.75 14.47 33.75 14.47 33.75 14.47 35.12 16.96 35.12 16.96 35.12 16.96 37.91 17.5 37.91 17.5 37.91 17.5 35.97 19.58 35.97 19.58ZM 32.53 11.97C 32.53 11.97 29.98 10.78 29.98 10.78 29.98 10.78 27.44 11.97 27.44 11.97 27.44 11.97 27.79 9.18 27.79 9.18 27.79 9.18 25.87 7.13 25.87 7.13 25.87 7.13 28.63 6.6 28.63 6.6 28.63 6.6 29.98 4.14 29.98 4.14 29.98 4.14 31.34 6.6 31.34 6.6 31.34 6.6 34.1 7.13 34.1 7.13 34.1 7.13 32.18 9.18 32.18 9.18 32.18 9.18 32.53 11.97 32.53 11.97ZM 27.69 26.97C 27.69 26.97 29.06 24.48 29.06 24.48 29.06 24.48 30.44 26.97 30.44 26.97 30.44 26.97 33.23 27.5 33.23 27.5 33.23 27.5 31.28 29.58 31.28 29.58 31.28 29.58 31.64 32.4 31.64 32.4 31.64 32.4 29.06 31.19 29.06 31.19 29.06 31.19 26.49 32.4 26.49 32.4 26.49 32.4 26.84 29.58 26.84 29.58 26.84 29.58 24.9 27.5 24.9 27.5 24.9 27.5 27.69 26.97 27.69 26.97ZM 21.91 36.82C 21.91 36.82 19.33 35.61 19.33 35.61 19.33 35.61 16.75 36.82 16.75 36.82 16.75 36.82 17.11 33.99 17.11 33.99 17.11 33.99 15.16 31.91 15.16 31.91 15.16 31.91 17.96 31.38 17.96 31.38 17.96 31.38 19.33 28.88 19.33 28.88 19.33 28.88 20.71 31.38 20.71 31.38 20.71 31.38 23.5 31.91 23.5 31.91 23.5 31.91 21.56 33.99 21.56 33.99 21.56 33.99 21.91 36.82 21.91 36.82ZM 21.91 7.99C 21.91 7.99 19.33 6.78 19.33 6.78 19.33 6.78 16.75 7.99 16.75 7.99 16.75 7.99 17.11 5.16 17.11 5.16 17.11 5.16 15.16 3.09 15.16 3.09 15.16 3.09 17.96 2.55 17.96 2.55 17.96 2.55 19.33 0.06 19.33 0.06 19.33 0.06 20.7 2.55 20.7 2.55 20.7 2.55 23.5 3.09 23.5 3.09 23.5 3.09 21.55 5.16 21.55 5.16 21.55 5.16 21.91 7.99 21.91 7.99ZM 12.14 32.35C 12.14 32.35 9.6 31.16 9.6 31.16 9.6 31.16 7.06 32.35 7.06 32.35 7.06 32.35 7.41 29.57 7.41 29.57 7.41 29.57 5.49 27.52 5.49 27.52 5.49 27.52 8.25 26.99 8.25 26.99 8.25 26.99 9.6 24.53 9.6 24.53 9.6 24.53 10.96 26.99 10.96 26.99 10.96 26.99 13.71 27.52 13.71 27.52 13.71 27.52 11.8 29.57 11.8 29.57 11.8 29.57 12.14 32.35 12.14 32.35ZM 11.26 12.02C 11.26 12.02 8.68 10.81 8.68 10.81 8.68 10.81 6.1 12.02 6.1 12.02 6.1 12.02 6.46 9.2 6.46 9.2 6.46 9.2 4.51 7.12 4.51 7.12 4.51 7.12 7.31 6.58 7.31 6.58 7.31 6.58 8.68 4.09 8.68 4.09 8.68 4.09 10.06 6.58 10.06 6.58 10.06 6.58 12.85 7.12 12.85 7.12 12.85 7.12 10.91 9.2 10.91 9.2 10.91 9.2 11.26 12.02 11.26 12.02ZM 6.29 16.96C 6.29 16.96 9.09 17.5 9.09 17.5 9.09 17.5 7.14 19.58 7.14 19.58 7.14 19.58 7.5 22.4 7.5 22.4 7.5 22.4 4.92 21.19 4.92 21.19 4.92 21.19 2.34 22.4 2.34 22.4 2.34 22.4 2.7 19.58 2.7 19.58 2.7 19.58 0.75 17.5 0.75 17.5 0.75 17.5 3.55 16.96 3.55 16.96 3.55 16.96 4.92 14.47 4.92 14.47 4.92 14.47 6.29 16.96 6.29 16.96Z" fill="#B8D887"/></svg>
