<?xml version="1.0" encoding="UTF-8" standalone="no"?>
<!-- Generator: IcoMoon.io -->

<svg
   xmlns:dc="http://purl.org/dc/elements/1.1/"
   xmlns:cc="http://creativecommons.org/ns#"
   xmlns:rdf="http://www.w3.org/1999/02/22-rdf-syntax-ns#"
   xmlns:svg="http://www.w3.org/2000/svg"
   xmlns="http://www.w3.org/2000/svg"
   xmlns:sodipodi="http://sodipodi.sourceforge.net/DTD/sodipodi-0.dtd"
   xmlns:inkscape="http://www.inkscape.org/namespaces/inkscape"
   width="16"
   height="16"
   viewBox="0 0 16 16"
   fill="#000000"
   id="svg2"
   version="1.1"
   inkscape:version="0.91 r13725"
   sodipodi:docname="right.svg">
  <metadata
     id="metadata12">
    <rdf:RDF>
      <cc:Work
         rdf:about="">
        <dc:format>image/svg+xml</dc:format>
        <dc:type
           rdf:resource="http://purl.org/dc/dcmitype/StillImage" />
        <dc:title></dc:title>
      </cc:Work>
    </rdf:RDF>
  </metadata>
  <defs
     id="defs10" />
  <sodipodi:namedview
     pagecolor="#ffffff"
     bordercolor="#666666"
     borderopacity="1"
     objecttolerance="10"
     gridtolerance="10"
     guidetolerance="10"
     inkscape:pageopacity="0"
     inkscape:pageshadow="2"
     inkscape:window-width="1920"
     inkscape:window-height="1056"
     id="namedview8"
     showgrid="false"
     inkscape:zoom="14.75"
     inkscape:cx="7.9322034"
     inkscape:cy="8"
     inkscape:window-x="0"
     inkscape:window-y="24"
     inkscape:window-maximized="1"
     inkscape:current-layer="svg2" />
  <g
     id="g4"
     transform="matrix(0,1,-1,0,16.456331,-0.54187288)"
     style="fill:#339ece;fill-opacity:1">
    <path
       d="M 8.855,6.15 C 8.757,6.052 8.629,6.004 8.5,6.004 8.371,6.004 8.243,6.052 8.145,6.15 L 4.902,9.393 c -0.195,0.195 -0.195,0.512 0,0.707 0.195,0.195 0.512,0.195 0.707,0 L 8.5,7.209 11.391,10.1 c 0.195,0.195 0.512,0.195 0.707,0 0.195,-0.195 0.195,-0.512 0,-0.707 L 8.855,6.15 Z M 8.533,1.067 C 4.409,1.067 1.066,4.41 1.066,8.534 1.066,12.658 4.41,16 8.533,16 12.656,16 16,12.657 16,8.533 16,4.409 12.657,1.067 8.533,1.067 Z M 8.533,15 C 4.967,15 2.066,12.099 2.066,8.533 2.066,4.967 4.967,2.066 8.533,2.066 12.099,2.066 15,4.968 15,8.533 15,12.098 12.099,15 8.533,15 Z"
       id="path6"
       inkscape:connector-curvature="0"
       style="fill:#339ece;fill-opacity:1" />
  </g>
</svg>
